HIERARCHY
ROOT root
{
	OFFSET 0.000000 0.000000 0.000000
	CHANNELS 6 Xposition Yposition Zposition Zrotation Yrotation Xrotation
	JOINT lhip
	{
		OFFSET 0.058581 -0.082280 -0.017664
		CHANNELS 3 Zrotation Yrotation Xrotation
		JOINT lknee
		{
			OFFSET 0.043451 -0.386469 0.008037
			CHANNELS 3 Zrotation Yrotation Xrotation
			JOINT lankle
			{
				OFFSET -0.014790 -0.426874 -0.037428
				CHANNELS 3 Zrotation Yrotation Xrotation
				JOINT ltoe
				{
					OFFSET 0.041054 -0.060286 0.122042
					CHANNELS 3 Zrotation Yrotation Xrotation
					End Site
					{
						OFFSET 0.000000 0.000000 0.000000
					}
				}
			}
		}
	}
	JOINT rhip
	{
		OFFSET -0.060310 -0.090513 -0.013543
		CHANNELS 3 Zrotation Yrotation Xrotation
		JOINT rknee
		{
			OFFSET -0.043257 -0.383688 -0.004843
			CHANNELS 3 Zrotation Yrotation Xrotation
			JOINT rankle
			{
				OFFSET 0.019056 -0.420046 -0.034562
				CHANNELS 3 Zrotation Yrotation Xrotation
				JOINT rtoe
				{
					OFFSET -0.034840 -0.062106 0.130323
					CHANNELS 3 Zrotation Yrotation Xrotation
					End Site
					{
						OFFSET 0.000000 0.000000 0.000000
					}
				}
			}
		}
	}
	JOINT lowerback
	{
		OFFSET 0.004439 0.124404 -0.038385
		CHANNELS 3 Zrotation Yrotation Xrotation
		JOINT upperback
		{
			OFFSET 0.004488 0.137956 0.026820
			CHANNELS 3 Zrotation Yrotation Xrotation
			JOINT chest
			{
				OFFSET -0.002265 0.056032 0.002855
				CHANNELS 3 Zrotation Yrotation Xrotation
				JOINT lowerneck
				{
					OFFSET -0.013390 0.211636 -0.033468
					CHANNELS 3 Zrotation Yrotation Xrotation
					JOINT upperneck
					{
						OFFSET 0.010113 0.088937 0.050410
						CHANNELS 3 Zrotation Yrotation Xrotation
						End Site
						{
							OFFSET 0.000000 0.000000 0.000000
						}
					}
				}
				JOINT lclavicle
				{
					OFFSET 0.071702 0.114000 -0.018898
					CHANNELS 3 Zrotation Yrotation Xrotation
					JOINT lshoulder
					{
						OFFSET 0.122921 0.045205 -0.019046
						CHANNELS 3 Zrotation Yrotation Xrotation
						JOINT lelbow
						{
							OFFSET 0.255332 -0.015649 -0.022946
							CHANNELS 3 Zrotation Yrotation Xrotation
							JOINT lwrist
							{
								OFFSET 0.265709 0.012698 -0.007375
								CHANNELS 3 Zrotation Yrotation Xrotation
								End Site
								{
									OFFSET 0.000000 0.000000 0.000000
								}
							}
						}
					}
				}
				JOINT rclavicle
				{
					OFFSET -0.082954 0.112472 -0.023707
					CHANNELS 3 Zrotation Yrotation Xrotation
					JOINT rshoulder
					{
						OFFSET -0.113228 0.046853 -0.008472
						CHANNELS 3 Zrotation Yrotation Xrotation
						JOINT relbow
						{
							OFFSET -0.260127 -0.014369 -0.031269
							CHANNELS 3 Zrotation Yrotation Xrotation
							JOINT rwrist
							{
								OFFSET -0.269108 0.006794 -0.006027
								CHANNELS 3 Zrotation Yrotation Xrotation
								End Site
								{
									OFFSET 0.000000 0.000000 0.000000
								}
							}
						}
					}
				}
			}
		}
	}
}
MOTION
Frames: 10
Frame Time: 0.033333
0.347083 0.167720 0.996010 89.390510 0.079217 90.605175 8.568610 4.677198 3.512271 -4.697600 2.303250 -4.680936 -1.671166 5.209279 -0.894833 0.000000 -0.000000 0.000000 -6.152356 -6.017237 -0.137499 0.815229 -1.783676 1.616641 5.800056 -4.025941 -3.566607 0.000000 -0.000000 0.000000 -3.629258 2.936770 -1.675745 0.668244 -2.624443 8.736585 2.191536 2.439421 -2.527391 0.606602 -2.273435 -7.957755 7.270821 -1.359521 -1.474644 -6.635451 -22.345287 -7.105493 -59.434496 -40.976621 23.191550 34.775509 -71.842190 -25.230094 20.105858 -3.629870 -24.094512 4.201843 21.274788 0.367902 34.623423 33.045646 5.377831 -73.058313 70.229659 -71.375944 9.759458 12.500455 -45.167112 
0.346014 0.167459 0.995944 88.744666 0.105380 90.607336 8.544624 4.849776 3.562615 -4.638318 2.789770 -4.672302 -1.650021 5.139792 -0.925159 0.000000 -0.000000 0.000000 -6.121251 -5.841397 -0.360403 0.770649 -1.754923 1.639263 5.801594 -3.572832 -3.485069 0.000000 -0.000000 0.000000 -3.707182 3.120312 -1.595367 0.832691 -2.578052 8.826937 2.060544 2.547193 -2.530993 1.015444 -1.357022 -7.828194 6.879318 -1.998089 -1.345706 -6.443566 -22.072683 -7.112861 -59.836114 -40.874888 23.047559 33.509591 -71.746363 -23.661180 20.694378 -3.163772 -25.007917 4.660816 21.393364 0.301156 36.955453 35.231000 5.727791 -75.423728 67.770904 -73.395039 6.156356 11.585668 -44.538496 
0.344868 0.167216 0.995900 88.075354 0.078048 90.724112 8.463894 4.896268 3.528481 -4.633221 3.349299 -4.705521 -1.589870 5.143175 -0.915636 0.000000 -0.000000 0.000000 -6.172269 -5.759606 -0.613652 0.793174 -1.714378 1.485842 5.813415 -3.039082 -3.276973 0.000000 -0.000000 0.000000 -3.683537 3.386533 -1.535939 0.839999 -2.445213 8.544894 1.821203 2.627063 -2.352456 1.378647 -0.608502 -7.517031 6.717891 -2.701555 -1.260243 -6.431706 -21.924248 -7.155325 -60.483043 -40.863339 22.976991 33.412973 -71.718190 -22.652601 21.411321 -2.654943 -25.092880 5.209255 21.448970 0.209442 39.415217 37.321913 6.333273 -73.561777 66.091369 -69.678048 2.385052 9.359736 -40.024487 
0.343667 0.166998 0.995890 87.582223 0.075729 90.832491 8.422594 4.912482 3.415341 -4.652666 3.700257 -4.704901 -1.527356 5.249302 -0.901540 0.000000 -0.000000 0.000000 -6.228155 -5.729246 -0.797321 0.901459 -1.636450 1.290973 5.838262 -2.710362 -3.095309 0.000000 -0.000000 0.000000 -3.529068 3.590238 -1.376431 0.668089 -2.229080 8.332315 1.635859 2.628452 -2.324612 1.601591 -0.461925 -7.368110 6.809935 -2.921515 -0.902261 -6.522795 -21.988382 -7.165251 -60.984922 -40.977993 22.980412 34.167087 -71.617322 -22.657446 21.592061 -2.675779 -24.871352 5.254708 21.553505 0.140376 40.709688 38.093456 6.951735 -69.245277 65.885771 -63.695914 1.496849 8.360632 -37.207981 
0.342318 0.166886 0.996004 87.371313 0.060344 90.967355 8.395224 4.928248 3.148319 -4.691593 3.827757 -4.575381 -1.407237 5.286462 -0.918923 0.000000 -0.000000 0.000000 -6.210383 -5.618158 -1.049801 0.878318 -1.551666 1.283414 5.917365 -2.721404 -2.977251 0.000000 -0.000000 0.000000 -3.574361 3.572711 -1.177170 0.434836 -2.097887 8.104587 1.733569 2.607846 -2.171030 1.646999 -0.948904 -7.317370 7.218640 -2.389179 -0.704762 -6.428276 -22.219738 -7.093239 -61.071882 -41.049802 23.080554 35.752026 -71.511657 -24.683063 21.228904 -3.319259 -23.411286 4.766046 21.929356 0.265081 41.041639 37.314712 7.571839 -66.833613 66.903527 -63.022160 4.176076 8.912019 -38.938775 
0.340821 0.167054 0.996110 87.445802 0.139992 90.932115 8.511280 4.983400 2.970874 -4.742192 3.817333 -4.410048 -1.383358 5.164002 -0.963564 0.000000 -0.000000 0.000000 -6.090026 -5.453545 -1.160633 0.839093 -1.666686 1.417700 5.877723 -2.829621 -2.994045 0.000000 -0.000000 0.000000 -3.791692 3.775220 -0.583935 0.632167 -1.882649 8.116751 2.011002 2.046502 -2.363784 1.804076 -1.073300 -7.247502 7.369050 -2.117155 -0.766830 -6.560275 -22.613074 -6.813150 -60.820799 -41.242838 22.747493 35.721099 -71.060832 -24.472452 20.270044 -4.576423 -21.471320 4.482771 22.163365 0.601015 41.590885 36.538651 8.492991 -66.075043 68.095163 -62.741379 4.543168 9.351834 -39.564984 
0.339055 0.166795 0.995949 87.573362 0.166666 90.814920 8.598701 5.195027 2.870597 -4.745455 3.708107 -4.268870 -1.515086 4.889797 -0.944267 0.000000 -0.000000 0.000000 -6.007868 -5.374623 -1.336762 0.764343 -1.968684 1.818165 5.720950 -2.660430 -3.042414 0.000000 -0.000000 0.000000 -3.779708 3.254831 -0.220051 0.544344 -2.578612 8.788511 1.799918 2.464531 -2.597132 2.331843 0.115504 -7.106087 7.282577 -2.427687 -0.802162 -6.054503 -22.609462 -6.801924 -60.292611 -41.460635 21.902879 34.706211 -70.062196 -22.175501 19.137190 -5.429892 -20.219615 4.795208 22.535799 0.957891 44.472389 37.209429 9.902246 -64.821908 67.710216 -60.271482 4.142307 9.350799 -40.488070 
0.337387 0.166812 0.995709 87.641344 0.280364 90.652899 8.733728 5.444998 2.854592 -4.687760 3.646184 -4.188791 -1.656959 4.618022 -0.955890 0.000000 -0.000000 0.000000 -5.879290 -5.259247 -1.493776 0.735059 -2.260513 2.238902 5.608142 -2.508165 -3.109819 0.000000 -0.000000 0.000000 -4.087792 2.800657 -0.015488 0.957903 -2.997785 9.043772 2.011370 2.719555 -2.212431 2.572291 0.726282 -6.833326 7.009864 -2.835873 -0.268601 -5.903240 -23.065918 -6.786521 -59.623187 -41.899611 21.160859 33.962746 -68.120307 -20.878411 17.658390 -6.403313 -18.104244 5.315576 23.138066 1.213514 46.289721 37.916248 10.537485 -61.986569 67.021080 -57.909786 4.559844 9.382214 -42.064691 
0.335772 0.166493 0.995780 87.489669 0.315486 90.732499 8.756566 5.656576 2.613577 -4.604369 3.914705 -4.066035 -1.828721 4.228722 -0.924043 0.000000 -0.000000 0.000000 -5.762689 -5.037394 -1.916283 0.646471 -2.655720 2.591817 5.524399 -2.222238 -3.045089 0.000000 -0.000000 0.000000 -4.160430 2.963787 0.489392 1.253947 -3.099361 9.132403 1.929727 2.525064 -2.762729 3.042171 1.483878 -6.522851 6.624081 -4.011635 0.805724 -5.862587 -23.201024 -6.595242 -59.003474 -42.528608 20.171034 32.012028 -66.532248 -17.245286 13.594238 -8.387069 -16.274658 6.250538 23.071388 1.459451 49.169643 38.621290 11.707654 -59.506210 66.049063 -55.197257 7.072092 10.230968 -44.125587 
0.334399 0.166302 0.995639 87.036385 0.422541 90.707747 8.879679 5.867352 2.617764 -4.607150 4.299477 -4.053067 -1.864314 3.983685 -0.917355 0.000000 -0.000000 0.000000 -5.618518 -4.771567 -2.247218 0.568549 -2.923200 2.912124 5.482040 -1.730651 -2.998107 0.000000 -0.000000 0.000000 -4.364514 2.920271 0.491038 1.742623 -3.052549 9.611410 2.029416 2.689480 -2.763745 3.428607 2.090931 -5.989037 6.328775 -4.758456 1.402185 -5.716604 -23.486119 -6.731202 -58.180901 -43.231468 19.232421 31.440897 -65.224788 -14.820551 7.823857 -10.080658 -14.142403 6.619374 23.490213 1.865824 51.280770 39.153724 12.426069 -58.507150 64.747230 -54.087173 10.573888 11.894083 -46.186489 
